<mxfile host="app.diagrams.net" agent="Mozilla/5.0 (Windows NT 10.0; Win64; x64) AppleWebKit/537.36 (KHTML, like Gecko) Chrome/136.0.0.0 Safari/537.36 Edg/136.0.0.0" version="26.2.14" pages="4">
  <diagram name="Layered Diagram" id="qVw3ZeCgsZaBuNKjIFqS">
    <mxGraphModel dx="2900" dy="1113" grid="1" gridSize="10" guides="1" tooltips="1" connect="1" arrows="1" fold="1" page="1" pageScale="1" pageWidth="827" pageHeight="1169" math="0" shadow="0">
      <root>
        <mxCell id="0" />
        <mxCell id="1" parent="0" />
        <mxCell id="XCnNXTIFXbrZ1xSmHSeM-22" value="" style="rounded=0;whiteSpace=wrap;html=1;" parent="1" vertex="1">
          <mxGeometry x="520" y="650" width="380" height="180" as="geometry" />
        </mxCell>
        <mxCell id="XCnNXTIFXbrZ1xSmHSeM-5" value="" style="rounded=0;whiteSpace=wrap;html=1;" parent="1" vertex="1">
          <mxGeometry width="910" height="160" as="geometry" />
        </mxCell>
        <mxCell id="XCnNXTIFXbrZ1xSmHSeM-3" value="ViewModels" style="rounded=1;whiteSpace=wrap;html=1;" parent="1" vertex="1">
          <mxGeometry x="25" y="40" width="190" height="60" as="geometry" />
        </mxCell>
        <mxCell id="XCnNXTIFXbrZ1xSmHSeM-4" value="3D Graphics" style="rounded=1;whiteSpace=wrap;html=1;" parent="1" vertex="1">
          <mxGeometry x="250" y="40" width="190" height="60" as="geometry" />
        </mxCell>
        <mxCell id="XCnNXTIFXbrZ1xSmHSeM-6" value="" style="rounded=0;whiteSpace=wrap;html=1;" parent="1" vertex="1">
          <mxGeometry x="10" y="340" width="370" height="160" as="geometry" />
        </mxCell>
        <mxCell id="XCnNXTIFXbrZ1xSmHSeM-7" value="" style="rounded=0;whiteSpace=wrap;html=1;" parent="1" vertex="1">
          <mxGeometry x="530" y="340" width="370" height="160" as="geometry" />
        </mxCell>
        <mxCell id="XCnNXTIFXbrZ1xSmHSeM-8" value="Services" style="text;html=1;align=center;verticalAlign=middle;whiteSpace=wrap;rounded=0;" parent="1" vertex="1">
          <mxGeometry x="165" y="470" width="60" height="30" as="geometry" />
        </mxCell>
        <mxCell id="XCnNXTIFXbrZ1xSmHSeM-9" value="Infrastructure" style="text;html=1;align=center;verticalAlign=middle;whiteSpace=wrap;rounded=0;" parent="1" vertex="1">
          <mxGeometry x="690" y="470" width="60" height="30" as="geometry" />
        </mxCell>
        <mxCell id="XCnNXTIFXbrZ1xSmHSeM-10" value="Device Service" style="rounded=1;whiteSpace=wrap;html=1;" parent="1" vertex="1">
          <mxGeometry x="20" y="360" width="120" height="30" as="geometry" />
        </mxCell>
        <mxCell id="XCnNXTIFXbrZ1xSmHSeM-11" value="Document Service" style="rounded=1;whiteSpace=wrap;html=1;" parent="1" vertex="1">
          <mxGeometry x="190" y="360" width="170" height="30" as="geometry" />
        </mxCell>
        <mxCell id="XCnNXTIFXbrZ1xSmHSeM-12" value="Renishaw Analysis Service" style="rounded=1;whiteSpace=wrap;html=1;" parent="1" vertex="1">
          <mxGeometry x="190" y="430" width="170" height="30" as="geometry" />
        </mxCell>
        <mxCell id="XCnNXTIFXbrZ1xSmHSeM-13" value="Languages" style="rounded=1;whiteSpace=wrap;html=1;" parent="1" vertex="1">
          <mxGeometry x="550" y="350" width="120" height="30" as="geometry" />
        </mxCell>
        <mxCell id="XCnNXTIFXbrZ1xSmHSeM-14" value="Unit" style="rounded=1;whiteSpace=wrap;html=1;" parent="1" vertex="1">
          <mxGeometry x="700" y="350" width="120" height="30" as="geometry" />
        </mxCell>
        <mxCell id="XCnNXTIFXbrZ1xSmHSeM-15" value="Settings" style="rounded=1;whiteSpace=wrap;html=1;" parent="1" vertex="1">
          <mxGeometry x="550" y="390" width="120" height="30" as="geometry" />
        </mxCell>
        <mxCell id="XCnNXTIFXbrZ1xSmHSeM-16" value="Graph" style="rounded=1;whiteSpace=wrap;html=1;" parent="1" vertex="1">
          <mxGeometry x="700" y="390" width="120" height="30" as="geometry" />
        </mxCell>
        <mxCell id="XCnNXTIFXbrZ1xSmHSeM-17" value="" style="rounded=0;whiteSpace=wrap;html=1;" parent="1" vertex="1">
          <mxGeometry y="650" width="370" height="180" as="geometry" />
        </mxCell>
        <mxCell id="XCnNXTIFXbrZ1xSmHSeM-18" value="Model" style="rounded=1;whiteSpace=wrap;html=1;" parent="1" vertex="1">
          <mxGeometry x="20" y="770" width="120" height="40" as="geometry" />
        </mxCell>
        <mxCell id="XCnNXTIFXbrZ1xSmHSeM-19" value="Math" style="rounded=1;whiteSpace=wrap;html=1;" parent="1" vertex="1">
          <mxGeometry x="540" y="660" width="120" height="40" as="geometry" />
        </mxCell>
        <mxCell id="XCnNXTIFXbrZ1xSmHSeM-20" value="DataAccess" style="rounded=1;whiteSpace=wrap;html=1;" parent="1" vertex="1">
          <mxGeometry x="20" y="670" width="120" height="40" as="geometry" />
        </mxCell>
        <mxCell id="XCnNXTIFXbrZ1xSmHSeM-23" value="Database" style="text;html=1;align=center;verticalAlign=middle;whiteSpace=wrap;rounded=0;" parent="1" vertex="1">
          <mxGeometry x="155" y="800" width="60" height="30" as="geometry" />
        </mxCell>
        <mxCell id="XCnNXTIFXbrZ1xSmHSeM-24" value="Domain" style="text;html=1;align=center;verticalAlign=middle;whiteSpace=wrap;rounded=0;" parent="1" vertex="1">
          <mxGeometry x="675" y="800" width="60" height="30" as="geometry" />
        </mxCell>
        <mxCell id="XCnNXTIFXbrZ1xSmHSeM-25" value="" style="shape=singleArrow;direction=south;whiteSpace=wrap;html=1;" parent="1" vertex="1">
          <mxGeometry x="180" y="190" width="60" height="100" as="geometry" />
        </mxCell>
        <mxCell id="XCnNXTIFXbrZ1xSmHSeM-26" value="" style="shape=singleArrow;direction=south;whiteSpace=wrap;html=1;" parent="1" vertex="1">
          <mxGeometry x="670" y="190" width="60" height="100" as="geometry" />
        </mxCell>
        <mxCell id="XCnNXTIFXbrZ1xSmHSeM-27" value="" style="shape=singleArrow;direction=south;whiteSpace=wrap;html=1;" parent="1" vertex="1">
          <mxGeometry x="180" y="530" width="60" height="100" as="geometry" />
        </mxCell>
        <mxCell id="XCnNXTIFXbrZ1xSmHSeM-28" value="" style="shape=singleArrow;direction=south;whiteSpace=wrap;html=1;" parent="1" vertex="1">
          <mxGeometry x="670" y="530" width="60" height="100" as="geometry" />
        </mxCell>
        <mxCell id="XCnNXTIFXbrZ1xSmHSeM-29" value="" style="html=1;shadow=0;dashed=0;align=center;verticalAlign=middle;shape=mxgraph.arrows2.twoWayArrow;dy=0.6;dx=35;" parent="1" vertex="1">
          <mxGeometry x="400" y="390" width="100" height="60" as="geometry" />
        </mxCell>
        <mxCell id="XCnNXTIFXbrZ1xSmHSeM-30" value="" style="html=1;shadow=0;dashed=0;align=center;verticalAlign=middle;shape=mxgraph.arrows2.twoWayArrow;dy=0.6;dx=35;" parent="1" vertex="1">
          <mxGeometry x="400" y="700" width="100" height="60" as="geometry" />
        </mxCell>
        <mxCell id="XCnNXTIFXbrZ1xSmHSeM-31" value="" style="rounded=0;whiteSpace=wrap;html=1;" parent="1" vertex="1">
          <mxGeometry x="-450" y="330" width="344" height="170" as="geometry" />
        </mxCell>
        <mxCell id="XCnNXTIFXbrZ1xSmHSeM-32" value="Ballbar Device Services" style="text;html=1;align=center;verticalAlign=middle;whiteSpace=wrap;rounded=0;" parent="1" vertex="1">
          <mxGeometry x="-330" y="470" width="80" height="30" as="geometry" />
        </mxCell>
        <mxCell id="XCnNXTIFXbrZ1xSmHSeM-34" value="" style="rounded=0;whiteSpace=wrap;html=1;" parent="1" vertex="1">
          <mxGeometry x="-440" width="360" height="160" as="geometry" />
        </mxCell>
        <mxCell id="XCnNXTIFXbrZ1xSmHSeM-35" value="Remoting" style="text;html=1;align=center;verticalAlign=middle;whiteSpace=wrap;rounded=0;" parent="1" vertex="1">
          <mxGeometry x="-300" y="130" width="60" height="30" as="geometry" />
        </mxCell>
        <mxCell id="XCnNXTIFXbrZ1xSmHSeM-36" value="Tamhini" style="rounded=1;whiteSpace=wrap;html=1;" parent="1" vertex="1">
          <mxGeometry x="-414" y="30" width="124" height="40" as="geometry" />
        </mxCell>
        <mxCell id="XCnNXTIFXbrZ1xSmHSeM-37" value="Explore" style="rounded=1;whiteSpace=wrap;html=1;" parent="1" vertex="1">
          <mxGeometry x="-250" y="30" width="124" height="40" as="geometry" />
        </mxCell>
        <mxCell id="XCnNXTIFXbrZ1xSmHSeM-39" value="Presentation" style="text;html=1;align=center;verticalAlign=middle;whiteSpace=wrap;rounded=0;" parent="1" vertex="1">
          <mxGeometry x="420" y="130" width="60" height="30" as="geometry" />
        </mxCell>
        <mxCell id="gRjbhj93TC_IFjRaSpXS-1" value="Ballbar Discovery Service" style="rounded=1;whiteSpace=wrap;html=1;" vertex="1" parent="1">
          <mxGeometry x="-412" y="360" width="122" height="60" as="geometry" />
        </mxCell>
        <mxCell id="gRjbhj93TC_IFjRaSpXS-2" value="Ballbar Model" style="rounded=1;whiteSpace=wrap;html=1;" vertex="1" parent="1">
          <mxGeometry x="-260" y="360" width="120" height="60" as="geometry" />
        </mxCell>
      </root>
    </mxGraphModel>
  </diagram>
  <diagram id="iSovOzGjQ3j6tW4uzlxH" name="Use-Case Diagram">
    <mxGraphModel dx="1555" dy="835" grid="1" gridSize="10" guides="1" tooltips="1" connect="1" arrows="1" fold="1" page="1" pageScale="1" pageWidth="827" pageHeight="1169" math="0" shadow="0">
      <root>
        <mxCell id="0" />
        <mxCell id="1" parent="0" />
        <mxCell id="AtKZkPcU0iFPJ2RVdHrF-6" value="Operator" style="shape=umlActor;html=1;verticalLabelPosition=bottom;verticalAlign=top;align=center;" parent="1" vertex="1">
          <mxGeometry x="60" y="160" width="30" height="60" as="geometry" />
        </mxCell>
        <mxCell id="AtKZkPcU0iFPJ2RVdHrF-7" value="" style="rounded=0;whiteSpace=wrap;html=1;" parent="1" vertex="1">
          <mxGeometry x="160" y="20" width="820" height="620" as="geometry" />
        </mxCell>
        <mxCell id="AtKZkPcU0iFPJ2RVdHrF-8" value="Capture test" style="ellipse;whiteSpace=wrap;html=1;fillColor=#dae8fc;strokeColor=#6c8ebf;" parent="1" vertex="1">
          <mxGeometry x="440" y="80" width="140" height="70" as="geometry" />
        </mxCell>
        <mxCell id="AtKZkPcU0iFPJ2RVdHrF-9" value="Save test" style="ellipse;whiteSpace=wrap;html=1;fillColor=#dae8fc;strokeColor=#6c8ebf;" parent="1" vertex="1">
          <mxGeometry x="210" y="40" width="140" height="70" as="geometry" />
        </mxCell>
        <mxCell id="AtKZkPcU0iFPJ2RVdHrF-10" value="Calibrate Ballbar" style="ellipse;whiteSpace=wrap;html=1;fillColor=#dae8fc;strokeColor=#6c8ebf;" parent="1" vertex="1">
          <mxGeometry x="210" y="230" width="140" height="70" as="geometry" />
        </mxCell>
        <mxCell id="AtKZkPcU0iFPJ2RVdHrF-11" value="Quick Check" style="ellipse;whiteSpace=wrap;html=1;fillColor=#dae8fc;strokeColor=#6c8ebf;" parent="1" vertex="1">
          <mxGeometry x="440" y="220" width="140" height="70" as="geometry" />
        </mxCell>
        <mxCell id="AtKZkPcU0iFPJ2RVdHrF-13" value="&amp;lt;&amp;lt;include&amp;gt;&amp;gt;" style="edgeStyle=none;html=1;endArrow=open;verticalAlign=bottom;dashed=1;labelBackgroundColor=none;rounded=0;" parent="1" source="AtKZkPcU0iFPJ2RVdHrF-8" target="AtKZkPcU0iFPJ2RVdHrF-11" edge="1">
          <mxGeometry width="160" relative="1" as="geometry">
            <mxPoint x="330" y="360" as="sourcePoint" />
            <mxPoint x="490" y="360" as="targetPoint" />
          </mxGeometry>
        </mxCell>
        <mxCell id="AtKZkPcU0iFPJ2RVdHrF-14" value="Three Plane capture" style="ellipse;whiteSpace=wrap;html=1;fillColor=#dae8fc;strokeColor=#6c8ebf;" parent="1" vertex="1">
          <mxGeometry x="770" y="20" width="140" height="70" as="geometry" />
        </mxCell>
        <mxCell id="AtKZkPcU0iFPJ2RVdHrF-16" value="Setup Ballbar" style="ellipse;whiteSpace=wrap;html=1;fillColor=#dae8fc;strokeColor=#6c8ebf;" parent="1" vertex="1">
          <mxGeometry x="440" y="535" width="140" height="70" as="geometry" />
        </mxCell>
        <mxCell id="AtKZkPcU0iFPJ2RVdHrF-17" value="&amp;lt;&amp;lt;include&amp;gt;&amp;gt;" style="edgeStyle=none;html=1;endArrow=open;verticalAlign=bottom;dashed=1;labelBackgroundColor=none;rounded=0;" parent="1" source="AtKZkPcU0iFPJ2RVdHrF-16" target="AtKZkPcU0iFPJ2RVdHrF-11" edge="1">
          <mxGeometry width="160" relative="1" as="geometry">
            <mxPoint x="380" y="520" as="sourcePoint" />
            <mxPoint x="530" y="678" as="targetPoint" />
          </mxGeometry>
        </mxCell>
        <mxCell id="AtKZkPcU0iFPJ2RVdHrF-18" value="Advanced&lt;div&gt;&lt;br&gt;&lt;/div&gt;" style="shape=umlActor;html=1;verticalLabelPosition=bottom;verticalAlign=top;align=center;" parent="1" vertex="1">
          <mxGeometry x="50" y="540" width="30" height="65" as="geometry" />
        </mxCell>
        <mxCell id="AtKZkPcU0iFPJ2RVdHrF-20" value="" style="edgeStyle=none;html=1;endArrow=none;verticalAlign=bottom;rounded=0;entryX=0.03;entryY=0.636;entryDx=0;entryDy=0;entryPerimeter=0;" parent="1" target="AtKZkPcU0iFPJ2RVdHrF-8" edge="1" source="AtKZkPcU0iFPJ2RVdHrF-6">
          <mxGeometry width="160" relative="1" as="geometry">
            <mxPoint x="110" y="190" as="sourcePoint" />
            <mxPoint x="490" y="360" as="targetPoint" />
          </mxGeometry>
        </mxCell>
        <mxCell id="AtKZkPcU0iFPJ2RVdHrF-21" value="" style="edgeStyle=none;html=1;endArrow=none;verticalAlign=bottom;rounded=0;" parent="1" target="AtKZkPcU0iFPJ2RVdHrF-9" edge="1" source="AtKZkPcU0iFPJ2RVdHrF-6">
          <mxGeometry width="160" relative="1" as="geometry">
            <mxPoint x="110" y="210" as="sourcePoint" />
            <mxPoint x="234" y="155" as="targetPoint" />
          </mxGeometry>
        </mxCell>
        <mxCell id="AtKZkPcU0iFPJ2RVdHrF-23" value="" style="edgeStyle=none;html=1;endArrow=none;verticalAlign=bottom;rounded=0;entryX=0;entryY=0.5;entryDx=0;entryDy=0;" parent="1" source="AtKZkPcU0iFPJ2RVdHrF-18" target="AtKZkPcU0iFPJ2RVdHrF-16" edge="1">
          <mxGeometry width="160" relative="1" as="geometry">
            <mxPoint x="81" y="191" as="sourcePoint" />
            <mxPoint x="230" y="405" as="targetPoint" />
          </mxGeometry>
        </mxCell>
        <mxCell id="AtKZkPcU0iFPJ2RVdHrF-24" value="" style="edgeStyle=none;html=1;endArrow=block;endFill=0;endSize=12;verticalAlign=bottom;rounded=0;" parent="1" edge="1">
          <mxGeometry width="160" relative="1" as="geometry">
            <mxPoint x="66.51999999999998" y="540" as="sourcePoint" />
            <mxPoint x="71" y="260" as="targetPoint" />
          </mxGeometry>
        </mxCell>
        <mxCell id="AtKZkPcU0iFPJ2RVdHrF-25" value="Analyze test" style="ellipse;whiteSpace=wrap;html=1;fillColor=#dae8fc;strokeColor=#6c8ebf;" parent="1" vertex="1">
          <mxGeometry x="200" y="380" width="140" height="70" as="geometry" />
        </mxCell>
        <mxCell id="AtKZkPcU0iFPJ2RVdHrF-26" value="" style="edgeStyle=none;html=1;endArrow=none;verticalAlign=bottom;rounded=0;entryX=0;entryY=0.5;entryDx=0;entryDy=0;" parent="1" target="AtKZkPcU0iFPJ2RVdHrF-25" edge="1" source="AtKZkPcU0iFPJ2RVdHrF-6">
          <mxGeometry width="160" relative="1" as="geometry">
            <mxPoint x="70" y="230" as="sourcePoint" />
            <mxPoint x="250" y="335" as="targetPoint" />
          </mxGeometry>
        </mxCell>
        <mxCell id="H9fydCI9G_FKdwkJutKW-1" value="&amp;lt;&amp;lt;include&amp;gt;&amp;gt;" style="edgeStyle=none;html=1;endArrow=open;verticalAlign=bottom;dashed=1;labelBackgroundColor=none;rounded=0;" parent="1" source="AtKZkPcU0iFPJ2RVdHrF-11" target="AtKZkPcU0iFPJ2RVdHrF-10" edge="1">
          <mxGeometry width="160" relative="1" as="geometry">
            <mxPoint x="549" y="271" as="sourcePoint" />
            <mxPoint x="671" y="409" as="targetPoint" />
          </mxGeometry>
        </mxCell>
        <mxCell id="7TB7G4eIUOI_mL3ce8dc-2" value="&amp;lt;&amp;lt;include&amp;gt;&amp;gt;" style="edgeStyle=none;html=1;endArrow=open;verticalAlign=bottom;dashed=1;labelBackgroundColor=none;rounded=0;" edge="1" parent="1" source="AtKZkPcU0iFPJ2RVdHrF-9" target="AtKZkPcU0iFPJ2RVdHrF-8">
          <mxGeometry width="160" relative="1" as="geometry">
            <mxPoint x="330" y="350" as="sourcePoint" />
            <mxPoint x="490" y="350" as="targetPoint" />
          </mxGeometry>
        </mxCell>
        <mxCell id="7TB7G4eIUOI_mL3ce8dc-3" value="" style="edgeStyle=none;html=1;endArrow=none;verticalAlign=bottom;rounded=0;entryX=0;entryY=0.5;entryDx=0;entryDy=0;" edge="1" parent="1" source="AtKZkPcU0iFPJ2RVdHrF-6" target="AtKZkPcU0iFPJ2RVdHrF-10">
          <mxGeometry width="160" relative="1" as="geometry">
            <mxPoint x="330" y="350" as="sourcePoint" />
            <mxPoint x="490" y="350" as="targetPoint" />
          </mxGeometry>
        </mxCell>
        <mxCell id="7TB7G4eIUOI_mL3ce8dc-4" value="Single Plane capture" style="ellipse;whiteSpace=wrap;html=1;fillColor=#dae8fc;strokeColor=#6c8ebf;" vertex="1" parent="1">
          <mxGeometry x="780" y="130" width="140" height="70" as="geometry" />
        </mxCell>
        <mxCell id="7TB7G4eIUOI_mL3ce8dc-5" value="" style="edgeStyle=none;html=1;endArrow=block;endFill=0;endSize=12;verticalAlign=bottom;rounded=0;" edge="1" parent="1" source="7TB7G4eIUOI_mL3ce8dc-4" target="AtKZkPcU0iFPJ2RVdHrF-8">
          <mxGeometry width="160" relative="1" as="geometry">
            <mxPoint x="330" y="350" as="sourcePoint" />
            <mxPoint x="490" y="350" as="targetPoint" />
            <Array as="points">
              <mxPoint x="680" y="170" />
              <mxPoint x="680" y="110" />
            </Array>
          </mxGeometry>
        </mxCell>
        <mxCell id="7TB7G4eIUOI_mL3ce8dc-6" value="" style="edgeStyle=none;html=1;endArrow=block;endFill=0;endSize=12;verticalAlign=bottom;rounded=0;" edge="1" parent="1" source="AtKZkPcU0iFPJ2RVdHrF-14" target="AtKZkPcU0iFPJ2RVdHrF-8">
          <mxGeometry width="160" relative="1" as="geometry">
            <mxPoint x="602" y="200" as="sourcePoint" />
            <mxPoint x="608" y="130" as="targetPoint" />
            <Array as="points">
              <mxPoint x="680" y="60" />
              <mxPoint x="680" y="110" />
            </Array>
          </mxGeometry>
        </mxCell>
        <mxCell id="7TB7G4eIUOI_mL3ce8dc-8" value="Caesar" style="text;html=1;align=center;verticalAlign=middle;whiteSpace=wrap;rounded=0;" vertex="1" parent="1">
          <mxGeometry x="460" y="20" width="60" height="30" as="geometry" />
        </mxCell>
      </root>
    </mxGraphModel>
  </diagram>
  <diagram id="2QwJKj7Mu39O30W0aK68" name="Test capture sequence diagram">
    <mxGraphModel dx="1232" dy="702" grid="1" gridSize="10" guides="1" tooltips="1" connect="1" arrows="1" fold="1" page="1" pageScale="1" pageWidth="827" pageHeight="1169" math="0" shadow="0">
      <root>
        <mxCell id="0" />
        <mxCell id="1" parent="0" />
        <mxCell id="y7AqyQ8qaeDFnQvhyXsQ-1" value="Caesar" style="shape=umlLifeline;perimeter=lifelinePerimeter;whiteSpace=wrap;html=1;container=1;dropTarget=0;collapsible=0;recursiveResize=0;outlineConnect=0;portConstraint=eastwest;newEdgeStyle={&quot;edgeStyle&quot;:&quot;elbowEdgeStyle&quot;,&quot;elbow&quot;:&quot;vertical&quot;,&quot;curved&quot;:0,&quot;rounded&quot;:0};" parent="1" vertex="1">
          <mxGeometry x="130" y="80" width="100" height="690" as="geometry" />
        </mxCell>
        <mxCell id="Bud7S8XxrOQIcDVLLeqY-12" value="" style="html=1;points=[[0,0,0,0,5],[0,1,0,0,-5],[1,0,0,0,5],[1,1,0,0,-5]];perimeter=orthogonalPerimeter;outlineConnect=0;targetShapes=umlLifeline;portConstraint=eastwest;newEdgeStyle={&quot;curved&quot;:0,&quot;rounded&quot;:0};" parent="y7AqyQ8qaeDFnQvhyXsQ-1" vertex="1">
          <mxGeometry x="45" y="193" width="10" height="77" as="geometry" />
        </mxCell>
        <mxCell id="Bud7S8XxrOQIcDVLLeqY-13" value="Waiting for&amp;nbsp;&lt;div&gt;Feed IN&lt;/div&gt;" style="html=1;align=left;spacingLeft=2;endArrow=block;rounded=0;edgeStyle=orthogonalEdgeStyle;curved=0;rounded=0;" parent="y7AqyQ8qaeDFnQvhyXsQ-1" edge="1">
          <mxGeometry relative="1" as="geometry">
            <mxPoint x="50" y="200" as="sourcePoint" />
            <Array as="points">
              <mxPoint x="80" y="230" />
            </Array>
            <mxPoint x="55" y="230" as="targetPoint" />
          </mxGeometry>
        </mxCell>
        <mxCell id="Bud7S8XxrOQIcDVLLeqY-24" value="" style="html=1;points=[[0,0,0,0,5],[0,1,0,0,-5],[1,0,0,0,5],[1,1,0,0,-5]];perimeter=orthogonalPerimeter;outlineConnect=0;targetShapes=umlLifeline;portConstraint=eastwest;newEdgeStyle={&quot;curved&quot;:0,&quot;rounded&quot;:0};" parent="y7AqyQ8qaeDFnQvhyXsQ-1" vertex="1">
          <mxGeometry x="50" y="366" width="10" height="104" as="geometry" />
        </mxCell>
        <mxCell id="Bud7S8XxrOQIcDVLLeqY-25" value="Waiting for&lt;div&gt;Feed OUT&lt;/div&gt;" style="html=1;align=left;spacingLeft=2;endArrow=block;rounded=0;edgeStyle=orthogonalEdgeStyle;curved=0;rounded=0;" parent="y7AqyQ8qaeDFnQvhyXsQ-1" edge="1">
          <mxGeometry relative="1" as="geometry">
            <mxPoint x="55" y="380" as="sourcePoint" />
            <Array as="points">
              <mxPoint x="85" y="410" />
            </Array>
            <mxPoint x="60" y="410" as="targetPoint" />
          </mxGeometry>
        </mxCell>
        <mxCell id="y7AqyQ8qaeDFnQvhyXsQ-2" value="QC-20W" style="shape=umlLifeline;perimeter=lifelinePerimeter;whiteSpace=wrap;html=1;container=1;dropTarget=0;collapsible=0;recursiveResize=0;outlineConnect=0;portConstraint=eastwest;newEdgeStyle={&quot;edgeStyle&quot;:&quot;elbowEdgeStyle&quot;,&quot;elbow&quot;:&quot;vertical&quot;,&quot;curved&quot;:0,&quot;rounded&quot;:0};" parent="1" vertex="1">
          <mxGeometry x="350" y="80" width="100" height="690" as="geometry" />
        </mxCell>
        <mxCell id="Bud7S8XxrOQIcDVLLeqY-30" value="" style="html=1;points=[[0,0,0,0,5],[0,1,0,0,-5],[1,0,0,0,5],[1,1,0,0,-5]];perimeter=orthogonalPerimeter;outlineConnect=0;targetShapes=umlLifeline;portConstraint=eastwest;newEdgeStyle={&quot;curved&quot;:0,&quot;rounded&quot;:0};" parent="y7AqyQ8qaeDFnQvhyXsQ-2" vertex="1">
          <mxGeometry x="45" y="617" width="10" height="40" as="geometry" />
        </mxCell>
        <mxCell id="Bud7S8XxrOQIcDVLLeqY-31" value="Waiting for awake" style="html=1;align=left;spacingLeft=2;endArrow=block;rounded=0;edgeStyle=orthogonalEdgeStyle;curved=0;rounded=0;" parent="y7AqyQ8qaeDFnQvhyXsQ-2" edge="1">
          <mxGeometry relative="1" as="geometry">
            <mxPoint x="55" y="50" as="sourcePoint" />
            <Array as="points">
              <mxPoint x="91" y="50" />
              <mxPoint x="91" y="80" />
            </Array>
            <mxPoint x="56" y="80" as="targetPoint" />
          </mxGeometry>
        </mxCell>
        <mxCell id="Bud7S8XxrOQIcDVLLeqY-32" value="" style="html=1;points=[[0,0,0,0,5],[0,1,0,0,-5],[1,0,0,0,5],[1,1,0,0,-5]];perimeter=orthogonalPerimeter;outlineConnect=0;targetShapes=umlLifeline;portConstraint=eastwest;newEdgeStyle={&quot;curved&quot;:0,&quot;rounded&quot;:0};" parent="y7AqyQ8qaeDFnQvhyXsQ-2" vertex="1">
          <mxGeometry x="45" y="510" width="10" height="80" as="geometry" />
        </mxCell>
        <mxCell id="y7AqyQ8qaeDFnQvhyXsQ-3" value="CNC Machine" style="shape=umlLifeline;perimeter=lifelinePerimeter;whiteSpace=wrap;html=1;container=1;dropTarget=0;collapsible=0;recursiveResize=0;outlineConnect=0;portConstraint=eastwest;newEdgeStyle={&quot;curved&quot;:0,&quot;rounded&quot;:0};" parent="1" vertex="1">
          <mxGeometry x="580" y="80" width="100" height="690" as="geometry" />
        </mxCell>
        <mxCell id="Bud7S8XxrOQIcDVLLeqY-14" value="" style="html=1;points=[[0,0,0,0,5],[0,1,0,0,-5],[1,0,0,0,5],[1,1,0,0,-5]];perimeter=orthogonalPerimeter;outlineConnect=0;targetShapes=umlLifeline;portConstraint=eastwest;newEdgeStyle={&quot;curved&quot;:0,&quot;rounded&quot;:0};" parent="y7AqyQ8qaeDFnQvhyXsQ-3" vertex="1">
          <mxGeometry x="45" y="230" width="10" height="220" as="geometry" />
        </mxCell>
        <mxCell id="Bud7S8XxrOQIcDVLLeqY-8" value="Start capture" style="html=1;verticalAlign=bottom;startArrow=oval;startFill=1;endArrow=block;startSize=8;curved=0;rounded=0;" parent="1" edge="1">
          <mxGeometry width="60" relative="1" as="geometry">
            <mxPoint x="179.5" y="210" as="sourcePoint" />
            <mxPoint x="399.5" y="210" as="targetPoint" />
          </mxGeometry>
        </mxCell>
        <mxCell id="Bud7S8XxrOQIcDVLLeqY-9" value="stream" style="html=1;verticalAlign=bottom;endArrow=open;dashed=1;endSize=8;curved=0;rounded=0;" parent="1" edge="1">
          <mxGeometry relative="1" as="geometry">
            <mxPoint x="399.5" y="240" as="sourcePoint" />
            <mxPoint x="179.5" y="240" as="targetPoint" />
          </mxGeometry>
        </mxCell>
        <mxCell id="Bud7S8XxrOQIcDVLLeqY-16" value="Feed IN" style="html=1;verticalAlign=bottom;endArrow=open;dashed=1;endSize=8;curved=0;rounded=0;" parent="1" target="y7AqyQ8qaeDFnQvhyXsQ-1" edge="1">
          <mxGeometry relative="1" as="geometry">
            <mxPoint x="400" y="340" as="sourcePoint" />
            <mxPoint x="320" y="340" as="targetPoint" />
          </mxGeometry>
        </mxCell>
        <mxCell id="Bud7S8XxrOQIcDVLLeqY-17" value="Macro BEGIN" style="html=1;verticalAlign=bottom;endArrow=open;dashed=1;endSize=8;curved=0;rounded=0;" parent="1" source="y7AqyQ8qaeDFnQvhyXsQ-3" target="y7AqyQ8qaeDFnQvhyXsQ-2" edge="1">
          <mxGeometry relative="1" as="geometry">
            <mxPoint x="620" y="320" as="sourcePoint" />
            <mxPoint x="540" y="320" as="targetPoint" />
            <Array as="points">
              <mxPoint x="510" y="320" />
            </Array>
          </mxGeometry>
        </mxCell>
        <mxCell id="Bud7S8XxrOQIcDVLLeqY-18" value="stream" style="html=1;verticalAlign=bottom;endArrow=open;dashed=1;endSize=8;curved=0;rounded=0;" parent="1" edge="1">
          <mxGeometry relative="1" as="geometry">
            <mxPoint x="399.5" y="371" as="sourcePoint" />
            <mxPoint x="179.5" y="371" as="targetPoint" />
          </mxGeometry>
        </mxCell>
        <mxCell id="Bud7S8XxrOQIcDVLLeqY-19" value="" style="html=1;verticalAlign=bottom;endArrow=open;dashed=1;endSize=8;curved=0;rounded=0;" parent="1" edge="1">
          <mxGeometry relative="1" as="geometry">
            <mxPoint x="399.5" y="391" as="sourcePoint" />
            <mxPoint x="179.5" y="391" as="targetPoint" />
          </mxGeometry>
        </mxCell>
        <mxCell id="Bud7S8XxrOQIcDVLLeqY-26" value="Macro END" style="html=1;verticalAlign=bottom;endArrow=open;dashed=1;endSize=8;curved=0;rounded=0;" parent="1" edge="1">
          <mxGeometry relative="1" as="geometry">
            <mxPoint x="629.5" y="521" as="sourcePoint" />
            <mxPoint x="399.5" y="521" as="targetPoint" />
            <Array as="points">
              <mxPoint x="510" y="521" />
            </Array>
            <mxPoint as="offset" />
          </mxGeometry>
        </mxCell>
        <mxCell id="Bud7S8XxrOQIcDVLLeqY-28" value="Feed OUT" style="html=1;verticalAlign=bottom;endArrow=open;dashed=1;endSize=8;curved=0;rounded=0;" parent="1" target="y7AqyQ8qaeDFnQvhyXsQ-1" edge="1">
          <mxGeometry relative="1" as="geometry">
            <mxPoint x="399.5" y="540" as="sourcePoint" />
            <mxPoint x="170" y="540" as="targetPoint" />
          </mxGeometry>
        </mxCell>
        <mxCell id="Bud7S8XxrOQIcDVLLeqY-29" value="Stop capture" style="html=1;verticalAlign=bottom;startArrow=oval;startFill=1;endArrow=block;startSize=8;curved=0;rounded=0;" parent="1" edge="1">
          <mxGeometry width="60" relative="1" as="geometry">
            <mxPoint x="179.5" y="587" as="sourcePoint" />
            <mxPoint x="399.5" y="587" as="targetPoint" />
          </mxGeometry>
        </mxCell>
        <mxCell id="Bud7S8XxrOQIcDVLLeqY-33" value="Sleep" style="text;html=1;align=center;verticalAlign=middle;whiteSpace=wrap;rounded=0;" parent="1" vertex="1">
          <mxGeometry x="395" y="610" width="60" height="30" as="geometry" />
        </mxCell>
        <mxCell id="Bud7S8XxrOQIcDVLLeqY-34" value="Running Macro" style="text;html=1;align=center;verticalAlign=middle;whiteSpace=wrap;rounded=0;" parent="1" vertex="1">
          <mxGeometry x="640" y="410" width="60" height="30" as="geometry" />
        </mxCell>
        <mxCell id="Bud7S8XxrOQIcDVLLeqY-35" value="" style="html=1;points=[[0,0,0,0,5],[0,1,0,0,-5],[1,0,0,0,5],[1,1,0,0,-5]];perimeter=orthogonalPerimeter;outlineConnect=0;targetShapes=umlLifeline;portConstraint=eastwest;newEdgeStyle={&quot;curved&quot;:0,&quot;rounded&quot;:0};" parent="1" vertex="1">
          <mxGeometry x="395" y="127" width="10" height="40" as="geometry" />
        </mxCell>
        <mxCell id="Bud7S8XxrOQIcDVLLeqY-36" value="Waiting for awake" style="html=1;align=left;spacingLeft=2;endArrow=block;rounded=0;edgeStyle=orthogonalEdgeStyle;curved=0;rounded=0;" parent="1" edge="1">
          <mxGeometry relative="1" as="geometry">
            <mxPoint x="406" y="700" as="sourcePoint" />
            <Array as="points">
              <mxPoint x="442" y="700" />
              <mxPoint x="442" y="730" />
            </Array>
            <mxPoint x="407" y="730" as="targetPoint" />
          </mxGeometry>
        </mxCell>
      </root>
    </mxGraphModel>
  </diagram>
  <diagram id="2c_iZmHY-w1HCeJv4Sja" name="Ballbar Connection Sequence Diagram">
    <mxGraphModel dx="1232" dy="702" grid="1" gridSize="10" guides="1" tooltips="1" connect="1" arrows="1" fold="1" page="1" pageScale="1" pageWidth="827" pageHeight="1169" math="0" shadow="0">
      <root>
        <mxCell id="0" />
        <mxCell id="1" parent="0" />
        <mxCell id="KF1buy_FZuKoMvx1vkpZ-1" value="Caesar" style="shape=umlLifeline;perimeter=lifelinePerimeter;whiteSpace=wrap;html=1;container=1;dropTarget=0;collapsible=0;recursiveResize=0;outlineConnect=0;portConstraint=eastwest;newEdgeStyle={&quot;edgeStyle&quot;:&quot;elbowEdgeStyle&quot;,&quot;elbow&quot;:&quot;vertical&quot;,&quot;curved&quot;:0,&quot;rounded&quot;:0};" vertex="1" parent="1">
          <mxGeometry x="170" y="40" width="100" height="300" as="geometry" />
        </mxCell>
        <mxCell id="KF1buy_FZuKoMvx1vkpZ-2" value="QC-2W" style="shape=umlLifeline;perimeter=lifelinePerimeter;whiteSpace=wrap;html=1;container=1;dropTarget=0;collapsible=0;recursiveResize=0;outlineConnect=0;portConstraint=eastwest;newEdgeStyle={&quot;edgeStyle&quot;:&quot;elbowEdgeStyle&quot;,&quot;elbow&quot;:&quot;vertical&quot;,&quot;curved&quot;:0,&quot;rounded&quot;:0};" vertex="1" parent="1">
          <mxGeometry x="470" y="40" width="100" height="300" as="geometry" />
        </mxCell>
      </root>
    </mxGraphModel>
  </diagram>
</mxfile>
